# xmcd
#
# Track frame offsets:
#	150
#	7200
#	16785
#	24675
#	39975
#	57375
#	68550
#	74475
#	94575
#	112125
#	126000
#	139500
#	150975
#	167475
#	178575
#
# Disc length: 2565 seconds
#
# Revision: 0
# Processed by: cddbd v1.5.2PL0 Copyright (c) Steve Scherf et al.
# Submitted via: EasyCDDAExtractor 9.0.0.1
#
DISCID=bf0a030f
DTITLE=¯obraci - The Beggars - 7 dostatocnych - The Satisfactory 7
DYEAR=1995
DGENRE=Country
TTITLE0=Tatra
TTITLE1=Cripple Creek
TTITLE2=Tennessee Waltz
TTITLE3=Saris Karambol
TTITLE4=Ne¿ente sa chlapi statocni - Don't Marry The Courageos Men
TTITLE5=Blackberry Blossom
TTITLE6=Ricket's Hornpipe
TTITLE7=Od whisky k pomarancu - From Whisy To Orange
TTITLE8=Abilene
TTITLE9=Meaple Leaf Rag
TTITLE10=Krcma - The Saloon
TTITLE11=Blue Moon
TTITLE12=Down By...
TTITLE13=Five Strings Boogie Woogie
TTITLE14=Svadba - The Wedding
EXTD=
EXTT0=
EXTT1=
EXTT2=
EXTT3=
EXTT4=
EXTT5=
EXTT6=
EXTT7=
EXTT8=
EXTT9=
EXTT10=
EXTT11=
EXTT12=
EXTT13=
EXTT14=
PLAYORDER=
